<svg width="20" height="16" viewBox="0 0 20 16" fill="none" xmlns="http://www.w3.org/2000/svg">
<path d="M1 0.25C0.585786 0.25 0.25 0.585786 0.25 1C0.25 1.41421 0.585786 1.75 1 1.75V0.25ZM19 1.75C19.4142 1.75 19.75 1.41421 19.75 1C19.75 0.585786 19.4142 0.25 19 0.25V1.75ZM4.27273 4.91667C3.85851 4.91667 3.52273 5.25245 3.52273 5.66667C3.52273 6.08088 3.85851 6.41667 4.27273 6.41667V4.91667ZM15.7273 6.41667C16.1415 6.41667 16.4773 6.08088 16.4773 5.66667C16.4773 5.25245 16.1415 4.91667 15.7273 4.91667V6.41667ZM1 9.58333C0.585786 9.58333 0.25 9.91912 0.25 10.3333C0.25 10.7475 0.585786 11.0833 1 11.0833V9.58333ZM19 11.0833C19.4142 11.0833 19.75 10.7475 19.75 10.3333C19.75 9.91912 19.4142 9.58333 19 9.58333V11.0833ZM4.27273 14.25C3.85851 14.25 3.52273 14.5858 3.52273 15C3.52273 15.4142 3.85851 15.75 4.27273 15.75V14.25ZM15.7273 15.75C16.1415 15.75 16.4773 15.4142 16.4773 15C16.4773 14.5858 16.1415 14.25 15.7273 14.25V15.75ZM1 1.75H19V0.25H1V1.75ZM4.27273 6.41667H15.7273V4.91667H4.27273V6.41667ZM1 11.0833H19V9.58333H1V11.0833ZM4.27273 15.75H15.7273V14.25H4.27273V15.75Z" fill="white"/>
</svg>
