<svg width="20" height="16" viewBox="0 0 20 16" fill="none" xmlns="http://www.w3.org/2000/svg">
<path d="M1 0.25C0.585786 0.25 0.25 0.585786 0.25 1C0.25 1.41421 0.585786 1.75 1 1.75V0.25ZM19 1.75C19.4142 1.75 19.75 1.41421 19.75 1C19.75 0.585786 19.4142 0.25 19 0.25V1.75ZM1 4.91667C0.585786 4.91667 0.25 5.25245 0.25 5.66667C0.25 6.08088 0.585786 6.41667 1 6.41667V4.91667ZM12.4545 6.41667C12.8688 6.41667 13.2045 6.08088 13.2045 5.66667C13.2045 5.25245 12.8688 4.91667 12.4545 4.91667V6.41667ZM1 9.58333C0.585786 9.58333 0.25 9.91912 0.25 10.3333C0.25 10.7475 0.585786 11.0833 1 11.0833V9.58333ZM19 11.0833C19.4142 11.0833 19.75 10.7475 19.75 10.3333C19.75 9.91912 19.4142 9.58333 19 9.58333V11.0833ZM1 14.25C0.585786 14.25 0.25 14.5858 0.25 15C0.25 15.4142 0.585786 15.75 1 15.75V14.25ZM12.4545 15.75C12.8688 15.75 13.2045 15.4142 13.2045 15C13.2045 14.5858 12.8688 14.25 12.4545 14.25V15.75ZM1 1.75H19V0.25H1V1.75ZM1 6.41667H12.4545V4.91667H1V6.41667ZM1 11.0833H19V9.58333H1V11.0833ZM1 15.75H12.4545V14.25H1V15.75Z" fill="white"/>
</svg>
