<svg width="20" height="16" viewBox="0 0 20 16" fill="none" xmlns="http://www.w3.org/2000/svg">
<path d="M1 0.25C0.585786 0.25 0.25 0.585786 0.25 1C0.25 1.41421 0.585786 1.75 1 1.75V0.25ZM19 1.75C19.4142 1.75 19.75 1.41421 19.75 1C19.75 0.585786 19.4142 0.25 19 0.25V1.75ZM7.54545 4.91667C7.13124 4.91667 6.79545 5.25245 6.79545 5.66667C6.79545 6.08088 7.13124 6.41667 7.54545 6.41667V4.91667ZM19 6.41667C19.4142 6.41667 19.75 6.08088 19.75 5.66667C19.75 5.25245 19.4142 4.91667 19 4.91667V6.41667ZM1 9.58333C0.585786 9.58333 0.25 9.91912 0.25 10.3333C0.25 10.7475 0.585786 11.0833 1 11.0833V9.58333ZM19 11.0833C19.4142 11.0833 19.75 10.7475 19.75 10.3333C19.75 9.91912 19.4142 9.58333 19 9.58333V11.0833ZM7.54545 14.25C7.13124 14.25 6.79545 14.5858 6.79545 15C6.79545 15.4142 7.13124 15.75 7.54545 15.75V14.25ZM19 15.75C19.4142 15.75 19.75 15.4142 19.75 15C19.75 14.5858 19.4142 14.25 19 14.25V15.75ZM1 1.75H19V0.25H1V1.75ZM7.54545 6.41667L19 6.41667V4.91667L7.54545 4.91667V6.41667ZM1 11.0833H19V9.58333H1V11.0833ZM7.54545 15.75H19V14.25H7.54545V15.75Z" fill="white"/>
</svg>
