<svg width="18" height="18" viewBox="0 0 18 18" fill="none" xmlns="http://www.w3.org/2000/svg">
<path d="M1.75 10.3333C1.75 9.91912 1.41421 9.58333 1 9.58333C0.585786 9.58333 0.25 9.91912 0.25 10.3333H1.75ZM17.75 10.3333C17.75 9.91912 17.4142 9.58333 17 9.58333C16.5858 9.58333 16.25 9.91912 16.25 10.3333H17.75ZM8.25 12.3333C8.25 12.7475 8.58579 13.0833 9 13.0833C9.41421 13.0833 9.75 12.7475 9.75 12.3333L8.25 12.3333ZM9.75 1.33334C9.75 0.919123 9.41421 0.583337 9 0.583337C8.58579 0.583337 8.25 0.919124 8.25 1.33334L9.75 1.33334ZM9 1L9.50679 0.447134C9.22005 0.184288 8.77995 0.184289 8.49321 0.447135L9 1ZM12.8568 5.55286C13.1622 5.83276 13.6366 5.81213 13.9165 5.50679C14.1964 5.20145 14.1758 4.72703 13.8704 4.44713L12.8568 5.55286ZM4.12957 4.44714C3.82423 4.72703 3.8036 5.20146 4.0835 5.5068C4.36339 5.81214 4.83782 5.83276 5.14316 5.55287L4.12957 4.44714ZM0.25 10.3333V15.6667H1.75V10.3333H0.25ZM2.45455 17.75H15.5455V16.25H2.45455V17.75ZM17.75 15.6667V10.3333H16.25V15.6667H17.75ZM15.5455 17.75C16.7002 17.75 17.75 16.8774 17.75 15.6667H16.25C16.25 15.9287 15.9973 16.25 15.5455 16.25V17.75ZM0.25 15.6667C0.25 16.8774 1.29977 17.75 2.45455 17.75V16.25C2.00267 16.25 1.75 15.9287 1.75 15.6667H0.25ZM9.75 12.3333L9.75 1.33334L8.25 1.33334L8.25 12.3333L9.75 12.3333ZM8.49321 1.55287L12.8568 5.55286L13.8704 4.44713L9.50679 0.447134L8.49321 1.55287ZM8.49321 0.447135L4.12957 4.44714L5.14316 5.55287L9.50679 1.55287L8.49321 0.447135Z" fill="white"/>
</svg>
