<svg width="18" height="18" viewBox="0 0 18 18" fill="none" xmlns="http://www.w3.org/2000/svg">
<path d="M7.99187 12.7774C7.69898 12.4845 7.22411 12.4845 6.93121 12.7774C6.63832 13.0703 6.63831 13.5451 6.93121 13.838L7.99187 12.7774ZM11.0688 13.838C11.3617 13.5451 11.3617 13.0703 11.0688 12.7774C10.7759 12.4845 10.301 12.4845 10.0081 12.7774L11.0688 13.838ZM16.25 9C16.25 13.0041 13.0041 16.25 9 16.25V17.75C13.8325 17.75 17.75 13.8325 17.75 9H16.25ZM9 16.25C4.99594 16.25 1.75 13.0041 1.75 9H0.25C0.25 13.8325 4.16751 17.75 9 17.75V16.25ZM1.75 9C1.75 4.99594 4.99594 1.75 9 1.75V0.25C4.16751 0.25 0.25 4.16751 0.25 9H1.75ZM9 1.75C13.0041 1.75 16.25 4.99594 16.25 9H17.75C17.75 4.16751 13.8325 0.25 9 0.25V1.75ZM9 13.1731C8.7063 13.1731 8.45015 13.0747 8.25672 12.9642C8.16157 12.9098 8.08793 12.856 8.04064 12.8182C8.01723 12.7995 8.00098 12.7852 7.9925 12.7776C7.98829 12.7738 7.98607 12.7716 7.98592 12.7715C7.98585 12.7714 7.9863 12.7719 7.98729 12.7728C7.98778 12.7733 7.98841 12.7739 7.98917 12.7747C7.98956 12.7751 7.98997 12.7755 7.99042 12.7759C7.99065 12.7761 7.99088 12.7764 7.99112 12.7766C7.99124 12.7767 7.99143 12.7769 7.99149 12.777C7.99168 12.7772 7.99187 12.7774 7.46154 13.3077C6.93121 13.838 6.9314 13.8382 6.9316 13.8384C6.93167 13.8385 6.93187 13.8387 6.93201 13.8388C6.93229 13.8391 6.93258 13.8394 6.93288 13.8397C6.93348 13.8403 6.93412 13.8409 6.9348 13.8416C6.93616 13.8429 6.93769 13.8444 6.93937 13.8461C6.94275 13.8494 6.94677 13.8533 6.95143 13.8577C6.96075 13.8666 6.97265 13.8777 6.98707 13.8907C7.01585 13.9167 7.05489 13.9505 7.10359 13.9895C7.20053 14.0671 7.33843 14.1671 7.51251 14.2666C7.85754 14.4637 8.37063 14.6731 9 14.6731V13.1731ZM9 14.6731C9.62937 14.6731 10.1425 14.4637 10.4875 14.2666C10.6616 14.1671 10.7995 14.0671 10.8964 13.9895C10.9451 13.9505 10.9841 13.9167 11.0129 13.8907C11.0273 13.8777 11.0393 13.8666 11.0486 13.8577C11.0532 13.8533 11.0573 13.8494 11.0606 13.8461C11.0623 13.8444 11.0638 13.8429 11.0652 13.8416C11.0659 13.8409 11.0665 13.8403 11.0671 13.8397C11.0674 13.8394 11.0677 13.8391 11.068 13.8388C11.0681 13.8387 11.0683 13.8385 11.0684 13.8384C11.0686 13.8382 11.0688 13.838 10.5385 13.3077C10.0081 12.7774 10.0083 12.7772 10.0085 12.777C10.0086 12.7769 10.0088 12.7767 10.0089 12.7766C10.0091 12.7764 10.0094 12.7761 10.0096 12.7759C10.01 12.7755 10.0104 12.7751 10.0108 12.7747C10.0116 12.7739 10.0122 12.7733 10.0127 12.7728C10.0137 12.7719 10.0142 12.7714 10.0141 12.7715C10.0139 12.7716 10.0117 12.7738 10.0075 12.7776C9.99902 12.7852 9.98277 12.7995 9.95936 12.8182C9.91207 12.856 9.83843 12.9098 9.74328 12.9642C9.54985 13.0747 9.2937 13.1731 9 13.1731V14.6731Z" fill="white"/>
<path d="M13.9243 10.2308C13.9243 10.9105 13.3732 11.4615 12.6935 11.4615C12.0138 11.4615 11.4627 10.9105 11.4627 10.2308C11.4627 9.55103 12.0138 9 12.6935 9C13.3732 9 13.9243 9.55103 13.9243 10.2308Z" fill="white"/>
<path d="M6.53966 10.2308C6.53966 10.9105 5.98863 11.4615 5.30889 11.4615C4.62916 11.4615 4.07812 10.9105 4.07812 10.2308C4.07812 9.55103 4.62916 9 5.30889 9C5.98863 9 6.53966 9.55103 6.53966 10.2308Z" fill="white"/>
</svg>
